<svg xmlns="http://www.w3.org/2000/svg" width="515pt" height="74pt" viewBox="0 0 515 74"><path fill="#ff4655" d="M459.105 14.352h18.426l.059 56.5c0 .726.59 1.324 1.324 1.324l10.55-.008a1.32 1.32 0 0 0 1.325-1.324l-.062-56.492h23.109c.68 0 1.066-.793.633-1.325l-7.91-9.91a3.49 3.49 0 0 0-2.723-1.316h-44.73a1.32 1.32 0 0 0-1.325 1.324v9.91c0 .719.59 1.317 1.324 1.317M14.367 70.859 68.422 3.125a.817.817 0 0 0-.637-1.324H54.27a3.497 3.497 0 0 0-2.727 1.316L13.195 51.164V3.117a1.32 1.32 0 0 0-1.32-1.324H1.32c-.73 0-1.32.59-1.32 1.324v67.735c0 .734.59 1.324 1.32 1.324h10.325a3.483 3.483 0 0 0 2.722-1.317m38.11 0L71.07 47.563l18.594 23.296a3.487 3.487 0 0 0 2.73 1.317h10.32a1.32 1.32 0 0 0 1.325-1.324V3.117c0-.726-.59-1.324-1.324-1.324h-8.656a6.989 6.989 0 0 0-5.457 2.625L35.594 70.844a.817.817 0 0 0 .636 1.324h13.516a3.456 3.456 0 0 0 2.73-1.309m38.36-49.488v31.207L78.383 36.977zm301.809 49.473L338.594 3.109a3.502 3.502 0 0 0-2.723-1.316H325.54c-.73 0-1.32.59-1.32 1.324v67.735c0 .734.59 1.324 1.32 1.324h10.324a3.472 3.472 0 0 0 2.723-1.317l18.594-23.296 18.59 23.296a3.485 3.485 0 0 0 2.726 1.317h13.516c.68 0 1.058-.793.633-1.332m-42.79-33.867-12.457 15.609V21.37zM201.11.039c-20.375 0-36.89 16.54-36.89 36.945s16.515 36.95 36.89 36.95c20.38 0 36.895-16.543 36.895-36.95C238.012 16.578 221.488.04 201.109.04m0 61.336c-13.09 0-23.695-10.922-23.695-24.39s10.606-24.4 23.695-24.4c13.094 0 23.7 10.923 23.7 24.4.007 13.468-10.606 24.39-23.7 24.39M435.422 3.117v48.047L397.074 3.11a3.51 3.51 0 0 0-2.726-1.316h-10.336c-.727 0-1.32.59-1.32 1.324v32.64c0 .794.265 1.563.765 2.184l10.98 13.762c.485.606 1.458.262 1.458-.508V22.79l38.355 48.07a3.478 3.478 0 0 0 2.723 1.317h10.324c.73 0 1.32-.59 1.32-1.324V3.117c0-.726-.59-1.324-1.32-1.324h-10.555c-.73 0-1.32.598-1.32 1.324m-128.945 14.68V3.117a1.32 1.32 0 0 0-1.32-1.324H251.14c-.73 0-1.32.59-1.32 1.324v67.735c0 .734.59 1.324 1.32 1.324h10.554c.73 0 1.32-.59 1.32-1.324V14.359h30.266l-20.43 25.61a1.343 1.343 0 0 0 0 1.652l23.34 29.246a3.485 3.485 0 0 0 2.727 1.317h13.516c.68 0 1.058-.793.632-1.325l-23.988-30.054 16.629-20.809c.492-.637.77-1.406.77-2.2m-185.274 54.38h31.32a3.472 3.472 0 0 0 2.723-1.317l7.91-9.918c.426-.53.047-1.324-.633-1.324h-29.445v-56.5a1.32 1.32 0 0 0-1.32-1.324h-10.555c-.73 0-1.32.59-1.32 1.324v67.735a1.33 1.33 0 0 0 1.32 1.324"/></svg>